<?xml version="1.0" encoding="UTF-8" standalone="no"?>
<!-- Generator: Adobe Illustrator 15.1.0, SVG Export Plug-In . SVG Version: 6.00 Build 0)  -->

<svg
   xmlns:dc="http://purl.org/dc/elements/1.1/"
   xmlns:cc="http://creativecommons.org/ns#"
   xmlns:rdf="http://www.w3.org/1999/02/22-rdf-syntax-ns#"
   xmlns:svg="http://www.w3.org/2000/svg"
   xmlns="http://www.w3.org/2000/svg"
   xmlns:xlink="http://www.w3.org/1999/xlink"
   xmlns:sodipodi="http://sodipodi.sourceforge.net/DTD/sodipodi-0.dtd"
   xmlns:inkscape="http://www.inkscape.org/namespaces/inkscape"
   version="1.1"
   id="Layer_1"
   x="0px"
   y="0px"
   width="512"
   height="512"
   viewBox="0 0 511.99999 511.99999"
   enable-background="new 0 0 517.2 511.2"
   xml:space="preserve"
   inkscape:version="0.48.2 r9819"
   sodipodi:docname="icon.svg"><metadata
   id="metadata5720"><rdf:RDF><cc:Work
       rdf:about=""><dc:format>image/svg+xml</dc:format><dc:type
         rdf:resource="http://purl.org/dc/dcmitype/StillImage" /></cc:Work></rdf:RDF></metadata><defs
   id="defs5718"><linearGradient
     id="linearGradient6513"><stop
       style="stop-color:#ebebeb;stop-opacity:1;"
       offset="0"
       id="stop6515" /><stop
       style="stop-color:#ffffff;stop-opacity:1;"
       offset="1"
       id="stop6517" /></linearGradient><linearGradient
     inkscape:collect="always"
     xlink:href="#linearGradient6513"
     id="linearGradient6519"
     x1="259.52875"
     y1="7.7201638"
     x2="259.52875"
     y2="511.95911"
     gradientUnits="userSpaceOnUse" /></defs><sodipodi:namedview
   pagecolor="#ffffff"
   bordercolor="#666666"
   borderopacity="1"
   objecttolerance="10"
   gridtolerance="10"
   guidetolerance="10"
   inkscape:pageopacity="0"
   inkscape:pageshadow="2"
   inkscape:window-width="1920"
   inkscape:window-height="1058"
   id="namedview5716"
   showgrid="false"
   inkscape:zoom="1.1859126"
   inkscape:cx="-44.920256"
   inkscape:cy="253.49059"
   inkscape:window-x="1920"
   inkscape:window-y="0"
   inkscape:window-maximized="1"
   inkscape:current-layer="g5696" />
<g
   id="g5694"
   transform="translate(0,0.79998778)">
	<g
   id="g5696"
   transform="matrix(1.0142665,0,0,1.0142665,-0.05706619,-8.1860292)">
		
			
		
	<path
   sodipodi:type="arc"
   style="fill:url(#linearGradient6519);fill-opacity:1;stroke:none"
   id="path5724"
   sodipodi:cx="256.55392"
   sodipodi:cy="257.70941"
   sodipodi:rx="250.42726"
   sodipodi:ry="250.42726"
   d="m 506.98119,257.70941 c 0,138.30716 -112.12011,250.42726 -250.42727,250.42726 -138.30715,0 -250.4272568,-112.1201 -250.4272568,-250.42726 0,-138.30716 112.1201068,-250.4272597 250.4272568,-250.4272597 138.30716,0 250.42727,112.1200997 250.42727,250.4272597 z"
   transform="matrix(0.9744095,0,0,0.9744095,2.4668248,8.5667943)" /></g>
	<g
   id="g5711">
		<path
   id="letterw_7_"
   d="m 439.248,146.456 c 0,1.286 -0.416,2.444 -1.211,3.508 -0.822,1.035 -1.68,1.567 -2.67,1.567 -7.909,0.758 -14.432,3.271 -19.455,7.56 -5.054,4.269 -10.238,12.449 -15.606,24.493 l -82.014,182.322 c -0.542,1.695 -2.035,2.542 -4.517,2.542 -1.938,0 -3.433,-0.848 -4.511,-2.542 l -46.003,-94.891 -52.896,94.891 c -1.078,1.695 -2.572,2.542 -4.511,2.542 -2.354,0 -3.914,-0.848 -4.671,-2.542 L 120.595,183.584 c -5.024,-11.319 -10.332,-19.226 -15.925,-23.708 -5.563,-4.483 -13.353,-7.276 -23.303,-8.345 -0.86,0 -1.685,-0.434 -2.415,-1.345 -0.764,-0.872 -1.145,-1.912 -1.145,-3.074 0,-2.976 0.857,-4.454 2.573,-4.454 7.186,0 14.688,0.317 22.539,0.942 7.277,0.66 14.146,0.974 20.567,0.974 6.549,0 14.275,-0.314 23.173,-0.974 9.312,-0.625 17.581,-0.942 24.765,-0.942 1.716,0 2.576,1.479 2.576,4.454 0,2.951 -0.544,4.419 -1.591,4.419 -7.183,0.536 -12.841,2.355 -16.978,5.399 -4.131,3.073 -6.197,7.085 -6.197,12.073 0,2.537 0.86,5.71 2.576,9.503 l 66.598,148.355 37.797,-70.427 -35.223,-72.85 c -6.327,-12.983 -11.538,-21.383 -15.607,-25.146 -4.07,-3.734 -10.237,-6.055 -18.501,-6.907 -0.762,0 -1.464,-0.434 -2.163,-1.345 -0.698,-0.872 -1.049,-1.912 -1.049,-3.074 0,-2.976 0.732,-4.454 2.258,-4.454 7.185,0 13.762,0.317 19.771,0.942 5.786,0.66 11.953,0.974 18.501,0.974 6.421,0 13.227,-0.314 20.407,-0.974 7.407,-0.625 14.687,-0.942 21.872,-0.942 1.716,0 2.576,1.479 2.576,4.454 0,2.951 -0.51,4.419 -1.588,4.419 -14.37,0.975 -21.556,4.989 -21.556,12.078 0,3.165 1.655,8.089 4.993,14.74 l 23.298,46.661 23.177,-42.68 c 3.21,-6.021 4.832,-11.104 4.832,-15.237 0,-9.723 -7.186,-14.896 -21.554,-15.561 -1.301,0 -1.94,-1.468 -1.94,-4.419 0,-1.069 0.317,-2.065 0.955,-3.01 0.669,-0.971 1.303,-1.444 1.938,-1.444 5.149,0 11.477,0.317 18.979,0.942 7.183,0.66 13.099,0.974 17.708,0.974 3.306,0 8.198,-0.284 14.622,-0.816 8.133,-0.72 14.974,-1.1 20.438,-1.1 1.273,0 1.907,1.256 1.907,3.798 0,3.391 -1.175,5.076 -3.526,5.076 -8.358,0.852 -15.101,3.137 -20.186,6.842 -5.087,3.7 -11.443,12.102 -19.044,25.211 l -30.898,56.35 41.834,84.074 61.767,-141.679 c 2.134,-5.173 3.21,-9.942 3.21,-14.267 0,-10.379 -7.18,-15.866 -21.551,-16.531 -1.303,0 -1.939,-1.468 -1.939,-4.419 0,-2.976 0.951,-4.454 2.892,-4.454 5.244,0 11.473,0.317 18.662,0.942 6.642,0.66 12.234,0.974 16.72,0.974 4.732,0 10.205,-0.314 16.402,-0.974 6.451,-0.625 12.239,-0.942 17.387,-0.942 1.496,-0.002 2.262,1.254 2.262,3.796 z"
   inkscape:connector-curvature="0"
   style="fill:#010101" />
	</g>
	
</g>
</svg>